<svg width="32" height="32" viewBox="0 0 32 32" fill="none" xmlns="http://www.w3.org/2000/svg">
<path d="M16 0C12.8355 0 9.74207 0.938383 7.11088 2.69649C4.4797 4.45459 2.42894 6.95345 1.21793 9.87706C0.0069325 12.8007 -0.309921 16.0177 0.307443 19.1214C0.924806 22.2251 2.44866 25.0761 4.6863 27.3137C6.92394 29.5513 9.77486 31.0752 12.8786 31.6926C15.9823 32.3099 19.1993 31.9931 22.1229 30.7821C25.0466 29.5711 27.5454 27.5203 29.3035 24.8891C31.0616 22.2579 32 19.1645 32 16C31.9948 11.7581 30.3074 7.6915 27.308 4.69205C24.3085 1.69259 20.2419 0.00521114 16 0ZM14.2105 23.8154H13.9348C13.4512 23.8138 12.9727 23.7164 12.5269 23.5288C12.0812 23.3412 11.6771 23.0672 11.3379 22.7225L7.64555 19.0302C7.4693 18.8598 7.32876 18.656 7.23211 18.4307C7.13546 18.2054 7.08465 17.9631 7.08263 17.718C7.08062 17.4729 7.12745 17.2298 7.22038 17.003C7.31331 16.7761 7.45049 16.5701 7.62391 16.3968C7.79734 16.2235 8.00352 16.0866 8.23045 15.9938C8.45738 15.9011 8.7005 15.8545 8.94563 15.8568C9.19076 15.859 9.43299 15.9101 9.65818 16.0069C9.88337 16.1038 10.087 16.2445 10.2572 16.4209L13.4572 19.6209C13.5198 19.683 13.5949 19.7309 13.6776 19.7615C13.7602 19.7921 13.8484 19.8047 13.9363 19.7984C14.0242 19.7921 14.1097 19.7671 14.1872 19.725C14.2646 19.6829 14.3321 19.6248 14.3852 19.5545L21.1028 10.5846C21.3966 10.1929 21.8339 9.93395 22.3186 9.86471C22.8033 9.79546 23.2957 9.9216 23.6874 10.2154C24.0791 10.5092 24.3381 10.9465 24.4073 11.4312C24.4765 11.9159 24.3504 12.4083 24.0566 12.8L16.9182 22.336C16.6 22.7628 16.1933 23.1158 15.7259 23.3707C15.2585 23.6256 14.7416 23.7765 14.2105 23.8129V23.8154Z" fill="#FB6E67"/>
</svg>
