<svg width="224" height="47" viewBox="0 0 224 47" fill="none" xmlns="http://www.w3.org/2000/svg">
<path d="M76.7054 13.7238L69.8228 22.7198L62.9973 13.7238H58.7135V35H63.1401V20.9777L69.5658 29.5739H70.137L76.5626 21.2919V35H80.9892V13.7238H76.7054ZM98.9066 26.7466C98.9066 22.4342 95.5367 19.0643 91.1672 19.0643C86.7121 19.0643 83.2851 22.5199 83.2851 27.1749C83.2851 31.6872 86.5122 35.3427 91.4528 35.3427C94.6514 35.3427 97.2217 33.8291 98.1641 31.5444L94.7371 29.9166C94.1373 30.9732 93.0236 31.6301 91.5099 31.6301C89.3966 31.6301 87.9972 30.3735 87.7402 28.403H98.7067C98.8495 27.9746 98.9066 27.3749 98.9066 26.7466ZM87.8259 25.2615C88.2543 23.4623 89.4823 22.4913 91.1672 22.4913C92.9379 22.4913 94.1945 23.6051 94.3658 25.2615H87.8259ZM112.162 13.7238V20.7207C111.105 19.664 109.535 19.0643 107.678 19.0643C103.252 19.0643 99.7676 22.6341 99.7676 27.2035C99.7676 31.7443 103.166 35.3427 107.707 35.3427C109.62 35.3427 111.334 34.7144 112.448 33.515V35H116.446V13.7238H112.162ZM108.221 31.4873C105.879 31.4873 104.194 29.7167 104.194 27.2035C104.194 24.7189 105.879 22.9197 108.221 22.9197C110.534 22.9197 112.162 24.6903 112.162 27.2035C112.162 29.7452 110.534 31.4873 108.221 31.4873ZM119.31 18.0076H123.594V13.7238H119.31V18.0076ZM119.31 35H123.594V19.407H119.31V35ZM133.847 35.3427C137.388 35.3427 140.244 33.3436 141.129 30.5734L137.473 28.7742C136.988 30.4306 135.617 31.4873 133.847 31.4873C131.59 31.4873 130.02 29.7167 130.02 27.2035C130.02 24.6903 131.59 22.9197 133.847 22.9197C135.589 22.9197 136.988 23.9764 137.473 25.6328L141.129 23.8621C140.187 20.9777 137.331 19.0643 133.847 19.0643C129.134 19.0643 125.593 22.5485 125.593 27.1749C125.593 31.83 129.163 35.3427 133.847 35.3427ZM154.672 13.7238H148.817L141.564 35H146.247L147.675 30.6591H155.814L157.242 35H161.926L154.672 13.7238ZM148.932 26.8037L151.759 18.179L154.558 26.8037H148.932ZM172.254 19.0643C170.255 19.0643 168.57 19.7783 167.485 21.0348V19.407H163.487V40.7117H167.771V33.772C168.827 34.743 170.398 35.3427 172.226 35.3427C176.738 35.3427 180.165 31.7443 180.165 27.2035C180.165 22.6341 176.681 19.0643 172.254 19.0643ZM171.712 31.4873C169.398 31.4873 167.771 29.7167 167.771 27.2035C167.771 24.6903 169.398 22.9197 171.712 22.9197C174.053 22.9197 175.738 24.7189 175.738 27.2035C175.738 29.6881 174.053 31.4873 171.712 31.4873ZM190.94 19.0643C188.941 19.0643 187.256 19.7783 186.171 21.0348V19.407H182.173V40.7117H186.456V33.772C187.513 34.743 189.084 35.3427 190.911 35.3427C195.424 35.3427 198.851 31.7443 198.851 27.2035C198.851 22.6341 195.367 19.0643 190.94 19.0643ZM190.397 31.4873C188.084 31.4873 186.456 29.7167 186.456 27.2035C186.456 24.6903 188.084 22.9197 190.397 22.9197C192.739 22.9197 194.424 24.7189 194.424 27.2035C194.424 29.6881 192.739 31.4873 190.397 31.4873ZM223.582 13.7238H218.613L214.301 20.4922L209.96 13.7238H204.99L211.816 24.3476L204.99 35H209.96L214.301 28.2316L218.613 35H223.582L216.785 24.3476L223.582 13.7238Z" fill="#201E62"/>
<path d="M44.1699 16.6945C42.4151 14.9398 40.0366 13.9534 37.5541 13.9534H33.8469C33.4742 13.9534 33.1699 13.6517 33.1699 13.2764V9.56914C33.1699 7.0892 32.1835 4.70815 30.4313 2.95597C28.6766 1.20124 26.298 0.214844 23.8156 0.214844C21.3356 0.214844 18.9546 1.20124 17.2024 2.95597C15.4477 4.70815 14.4613 7.0892 14.4613 9.56914V13.9534H28.2962C30.9866 13.9534 33.1699 16.1341 33.1699 18.8271V32.662H37.5541C40.0341 32.662 42.4151 31.6756 44.1699 29.9234C45.9246 28.1687 46.9084 25.7902 46.9084 23.3077C46.911 20.8278 45.9246 18.4493 44.1699 16.6945Z" fill="#4B7FFB"/>
<path d="M14.4612 27.7911V13.9536H10.077C7.59701 13.9536 5.21597 14.94 3.46378 16.6947C1.70905 18.4495 0.722656 20.828 0.722656 23.3104C0.722656 25.7904 1.70905 28.1714 3.46378 29.9236C5.2185 31.6783 7.59701 32.6622 10.077 32.6622H13.7842C14.1595 32.6622 14.4612 32.9665 14.4612 33.3392V37.0465C14.4612 39.5264 15.4476 41.9075 17.2023 43.6597C18.9571 45.4144 21.3356 46.3982 23.8155 46.3982C26.2955 46.3982 28.6765 45.4118 30.4312 43.6597C32.186 41.9049 33.1724 39.5264 33.1724 37.0439V32.6597H19.3349C16.6445 32.6622 14.4612 30.4815 14.4612 27.7911Z" fill="#4DA9FF"/>
<path d="M28.2987 13.9536H14.4613V27.7885C14.4613 30.4789 16.642 32.6622 19.3349 32.6622H33.1699V18.8273C33.1699 16.1369 30.9891 13.9536 28.2987 13.9536Z" fill="#68B7FF"/>
</svg>
