<svg width="104" height="104" viewBox="0 0 104 104" fill="none" xmlns="http://www.w3.org/2000/svg">
<g clip-path="url(#clip0)">
<rect width="104" height="104" fill="#4B80FB"/>
<path d="M89.1496 30.1242C88.3026 27.5407 85.6006 26.1347 83.4407 24.4745C79.3919 21.3829 76.7746 16.8513 73.2764 13.1244C68.7694 8.40473 62.8508 5.27746 56.4122 4.21372C49.9488 3.20221 43.3346 4.45921 37.6929 7.77122C35.6177 9.01634 34.1609 11.8962 34.1609 11.8962C33.1932 11.551 32.1622 11.4192 31.1388 11.5098C30.1154 11.6005 29.1236 11.9114 28.2317 12.4214C24.4878 14.5813 21.2607 19.7989 20.5238 24.051C19.7869 28.3031 19.6005 32.8007 17.483 36.5615C16.2971 38.6537 14.476 40.7966 15.0097 43.1344C15.2375 43.9183 15.6724 44.6262 16.2686 45.1837C16.8649 45.7412 17.6004 46.1276 18.3978 46.3023C20.0187 46.6086 21.6937 46.4349 23.2173 45.8026L72.1752 44.2271C73.496 44.7969 74.9326 45.0465 76.3681 44.9558C77.8036 44.8651 79.1974 44.4365 80.4359 43.705C81.6744 42.9734 82.7225 41.9597 83.4949 40.7463C84.2673 39.5329 84.7421 38.1542 84.8806 36.7225C85.6142 36.6094 86.3156 36.3423 86.9387 35.9387C87.5617 35.5352 88.0923 35.0044 88.4955 34.3811C88.8988 33.7579 89.1655 33.0564 89.2782 32.3227C89.391 31.589 89.3471 30.8397 89.1496 30.1242V30.1242Z" fill="#1E1C61"/>
<path d="M25.9713 42.3467L30.9434 100.791C31.7904 110.727 35.0599 125.152 50.7129 123.102C64.1551 120.298 66.5014 107.076 65.7052 97.8013C65.324 93.4052 65.0191 89.7376 65.0106 89.2802C65.0106 89.2802 79.7742 86.6206 79.5964 71.7977C79.5117 64.6403 78.131 49.9106 76.7334 36.5954C76.0016 29.6995 72.7019 23.3314 67.4902 18.7569C62.2785 14.1823 55.5363 11.7362 48.6038 11.9046H47.1723C31.7819 13.2175 24.2688 26.9986 25.9713 42.3467Z" fill="#FCC6AB"/>
<path d="M65.0362 89.0678C58.1871 89.3703 51.4037 87.6214 45.5547 84.0449C45.5547 84.0449 50.5521 94.6242 65.2988 92.9302L65.0362 89.0678Z" fill="#FFB194"/>
<path d="M74.4395 43.15C74.1854 43.4041 72.1864 43.4125 69.603 44.3358C67.0196 45.2591 65.3001 46.5465 64.9782 46.4957C64.8173 46.4957 65.046 46.1061 65.8252 45.5216C66.9362 44.6992 68.1676 44.0535 69.4759 43.6074C70.7236 43.1409 72.0405 42.8861 73.3722 42.8535C74.2023 42.8535 74.5665 43.0314 74.4395 43.15Z" fill="#1E1C61"/>
<path d="M52.6781 47.6083C52.2885 47.693 50.5012 46.4479 47.596 45.7194C44.6907 44.991 42.3614 45.1519 42.1072 44.8724C41.9802 44.7623 42.4206 44.5421 43.4455 44.4489C44.948 44.3549 46.4557 44.5065 47.9093 44.8978C49.3199 45.2254 50.6618 45.7988 51.8734 46.5918C52.6696 47.1932 52.8644 47.5744 52.6781 47.6083Z" fill="#1E1C61"/>
<path d="M49.0536 49.4796C49.0698 49.9076 48.9173 50.3249 48.629 50.6417C48.3408 50.9585 47.9396 51.1495 47.512 51.1736C47.0979 51.2065 46.6877 51.0746 46.3704 50.8065C46.0531 50.5384 45.8546 50.1559 45.8179 49.7422C45.7994 49.3149 45.95 48.8976 46.2369 48.5806C46.5238 48.2635 46.9241 48.0722 47.351 48.0481C47.5572 48.0284 47.7652 48.0499 47.9629 48.1115C48.1607 48.173 48.3441 48.2734 48.5026 48.4066C48.6611 48.5399 48.7915 48.7034 48.8861 48.8877C48.9807 49.0719 49.0376 49.2731 49.0536 49.4796V49.4796Z" fill="#1E1C61"/>
<path d="M71.3185 49.0472C71.337 49.4744 71.1865 49.8917 70.8996 50.2088C70.6126 50.5258 70.2124 50.7171 69.7854 50.7412C69.5799 50.7598 69.3728 50.7373 69.1761 50.6752C68.9793 50.6131 68.7969 50.5126 68.6393 50.3794C68.4817 50.2463 68.3521 50.0832 68.2581 49.8995C68.164 49.7159 68.1073 49.5154 68.0914 49.3097C68.0729 48.8825 68.2234 48.4652 68.5103 48.1481C68.7973 47.8311 69.1975 47.6398 69.6245 47.6157C69.83 47.5971 70.0371 47.6195 70.2338 47.6816C70.4306 47.7438 70.613 47.8443 70.7706 47.9775C70.9282 48.1106 71.0578 48.2737 71.1518 48.4574C71.2459 48.641 71.3025 48.8415 71.3185 49.0472Z" fill="#1E1C61"/>
<path d="M60.0303 61.592C60.0303 61.4649 61.4279 61.1854 63.7149 60.8297C64.2908 60.7619 64.8414 60.6264 64.9261 60.2283C64.9593 59.6338 64.8116 59.0432 64.5026 58.5342C63.9379 57.1451 63.3281 55.6826 62.6731 54.1467C60.132 47.9041 58.277 42.7711 58.5311 42.6695C58.7852 42.5679 61.0722 47.5483 63.6132 53.7909L65.3666 58.2039C65.7508 58.8944 65.8769 59.699 65.7223 60.4739C65.6413 60.6765 65.5154 60.8579 65.354 61.0047C65.1926 61.1514 64.9999 61.2596 64.7906 61.3209C64.4724 61.4208 64.1415 61.475 63.8081 61.4819C61.4957 61.6767 60.0473 61.719 60.0303 61.592Z" fill="#1E1C61"/>
<path d="M50.8388 38.8998C50.6524 39.4758 48.645 39.2556 46.2903 39.6028C43.9355 39.9501 42.0552 40.6701 41.7333 40.1703C41.5893 39.9247 41.9027 39.3911 42.6565 38.8236C43.6634 38.1205 44.8262 37.6728 46.0446 37.5192C47.2459 37.3371 48.4735 37.4534 49.6191 37.858C50.483 38.1968 50.915 38.6796 50.8388 38.8998Z" fill="#1E1C61"/>
<path d="M73.4631 37.9921C73.2429 38.4664 71.2778 38.1615 68.94 38.3139C66.6023 38.4664 64.7049 38.9577 64.4085 38.5172C64.2814 38.3054 64.6287 37.865 65.3995 37.433C66.4507 36.8913 67.6062 36.5822 68.7876 36.5267C69.9792 36.447 71.1743 36.6202 72.2942 37.0349C73.1413 37.3737 73.5563 37.7718 73.4631 37.9921Z" fill="#1E1C61"/>
<path d="M27.443 53.2817C27.1889 53.1801 17.1941 50.5204 17.7616 60.6424C18.3291 70.7643 28.3748 68.0962 28.3748 67.8082C28.3748 67.5202 27.443 53.2817 27.443 53.2817Z" fill="#FCC6AB"/>
<path d="M25.0722 64.1482C25.0214 64.1482 24.9028 64.2838 24.6148 64.4362C24.2034 64.6373 23.7308 64.6737 23.2935 64.5379C22.2093 64.2075 21.2098 62.5558 21.0573 60.7347C20.9863 59.8725 21.1048 59.0052 21.4046 58.1937C21.4836 57.8721 21.6387 57.5742 21.8569 57.3251C22.075 57.076 22.3498 56.8829 22.6582 56.7622C22.8585 56.6977 23.0751 56.7056 23.2702 56.7846C23.4652 56.8636 23.6264 57.0085 23.7254 57.1942C23.8779 57.4652 23.8271 57.6685 23.8779 57.6855C23.9287 57.7024 24.0897 57.5076 23.9796 57.0925C23.9117 56.8448 23.7588 56.6289 23.5476 56.4827C23.4044 56.3841 23.243 56.3153 23.0727 56.2803C22.9025 56.2454 22.7269 56.2451 22.5565 56.2794C22.1429 56.3863 21.7639 56.5985 21.4566 56.8954C21.1494 57.1922 20.9243 57.5637 20.8032 57.9734C20.4245 58.8745 20.2704 59.8541 20.3543 60.8279C20.5322 62.8608 21.6841 64.7157 23.1749 65.063C23.45 65.1265 23.7359 65.1275 24.0115 65.066C24.2871 65.0044 24.5453 64.8818 24.7673 64.7073C25.0722 64.3939 25.0722 64.1652 25.0722 64.1482Z" fill="#FFB194"/>
<path d="M79.7897 33.4441C76.5248 34.3721 73.0858 34.5097 69.7571 33.8454C66.4285 33.1811 63.3057 31.7342 60.647 29.6241C56.9709 26.6595 54.0826 22.3312 49.5341 21.0522C47.983 20.68 46.3735 20.6194 44.7989 20.8738C43.2242 21.1283 41.7157 21.6927 40.3608 22.5345C37.6622 24.2394 35.3416 26.4793 33.5423 29.1159C36.5916 36.5697 34.8721 45.023 33.1103 52.8833C33.013 53.7741 32.6192 54.6063 31.9922 55.2465C30.8149 56.1952 29.0022 55.526 27.935 54.4588C26.2409 52.7647 25.5125 50.2914 25.0297 47.9198C23.8367 42.5171 23.733 36.9307 24.7248 31.4875C25.7325 26.0289 28.3214 20.9865 32.1701 16.9865C37.1587 12.1262 43.8398 9.393 50.8046 9.36328C57.7804 9.41262 64.5615 11.669 70.176 15.8091C72.8582 17.5783 75.0563 19.9889 76.571 22.8225" fill="#1E1C61"/>
<path d="M58.3341 68.8005C58.4188 68.538 56.3859 68.1399 54.8189 66.4204C54.1587 65.6654 53.6032 64.825 53.1673 63.9217C52.8031 63.2187 52.532 62.7867 52.4303 62.829C52.3287 62.8714 52.4303 63.3627 52.6421 64.1419C52.9562 65.1872 53.4971 66.1502 54.226 66.9625C54.9737 67.7739 55.9329 68.3606 56.9958 68.6565C57.792 68.9191 58.3171 68.8852 58.3341 68.8005Z" fill="#1E1C61"/>
<path d="M23.0662 50.2251C23.6761 56.5523 35.8224 46.964 38.6599 41.2805C41.4974 35.597 42.0903 29.0664 42.2598 22.7137C43.8968 25.5283 46.0736 27.9919 48.6654 29.9629C51.2571 31.9339 54.2126 33.3737 57.3622 34.1994C63.6471 35.8257 72.6086 37.2063 78.1397 33.8436C78.1397 33.8436 69.7372 10.974 48.7988 14.1503C27.8604 17.3267 21.4653 33.725 23.0662 50.2251Z" fill="#1E1C61"/>
<path d="M34.1082 41.9645C34.176 41.9645 33.8118 43.2265 32.1431 44.2853C31.1586 44.8903 30.0093 45.1717 28.8567 45.09C27.4332 44.9641 26.1049 44.3225 25.1213 43.2858C24.8701 43.0269 24.6459 42.7431 24.4521 42.4388L25.1298 42.3456C25.0144 42.6955 24.8244 43.0161 24.5728 43.2852C24.3213 43.5543 24.0142 43.7655 23.6729 43.9042C23.0729 44.1515 22.4153 44.2249 21.7756 44.1159C21.2531 44.0112 20.7579 43.7999 20.3207 43.4953C19.8835 43.1908 19.5138 42.7994 19.2345 42.3456C18.6772 41.6086 18.3448 40.7261 18.2773 39.8046C18.3959 39.7538 18.6839 40.7617 19.6411 42.0322C20.1699 42.762 20.9578 43.262 21.8433 43.4298C22.3525 43.5429 22.8852 43.4744 23.3493 43.2362C23.8133 42.998 24.1795 42.6051 24.3844 42.1254L24.6131 41.3377L25.0705 42.0238C25.2395 42.294 25.4353 42.5466 25.6549 42.7776C26.517 43.6815 27.6672 44.2566 28.9075 44.4039C29.9279 44.5036 30.9553 44.3035 31.8636 43.8279C32.6996 43.3208 33.4559 42.6929 34.1082 41.9645V41.9645Z" fill="#5A4980"/>
<path d="M79.8566 37.6024C80.2468 36.9366 80.554 36.2254 80.7714 35.4849C81.2087 33.4236 80.8356 31.273 79.7295 29.4795C78.3912 27.1671 75.8417 25.1681 72.9534 23.1353L63.4074 16.5031C60.0193 14.106 56.7752 11.8953 53.4972 10.5739C50.633 9.30918 47.4392 8.99455 44.3833 9.67607C42.3392 10.2102 40.527 11.4005 39.2249 13.0642C38.7793 13.6993 38.3829 14.3676 38.0391 15.0631C38.0477 14.8552 38.0966 14.651 38.1831 14.4617C38.3829 13.9071 38.6534 13.3804 38.9877 12.8948C40.2601 11.0915 42.1145 9.78142 44.2393 9.18479C47.4093 8.39879 50.7492 8.66943 53.7513 9.95558C57.1394 11.2685 60.4682 13.4877 63.8224 15.8847L73.3515 22.5847C76.2483 24.643 78.874 26.7605 80.2208 29.2254C80.7729 30.1765 81.1319 31.2272 81.2773 32.3173C81.4226 33.4074 81.3514 34.5155 81.0678 35.578C80.8953 36.1462 80.6291 36.6816 80.2801 37.162C80.1641 37.3311 80.021 37.4799 79.8566 37.6024V37.6024Z" fill="#5A4980"/>
<path d="M70.083 26.8796C69.6905 26.9458 69.2897 26.9458 68.8972 26.8796C67.8304 26.7648 66.7723 26.5809 65.7293 26.329C62.3199 25.4033 58.9959 24.1876 55.7937 22.6953C52.0245 21.0775 48.5771 19.6206 45.9598 19.1802C44.5525 18.9581 43.1161 19.0012 41.7247 19.3072C41.6569 19.2479 43.2748 18.2993 46.0615 18.6465C48.8482 18.9938 52.3379 20.3829 56.1156 22.0346C59.2925 23.5047 62.5569 24.7776 65.8903 25.8462C68.4313 26.5747 70.1 26.7525 70.083 26.8796Z" fill="#5A4980"/>
<path d="M28.9343 20.5272C28.7649 20.4425 29.9168 18.5452 32.3224 17.4186C34.7279 16.2921 36.8963 16.5716 36.8539 16.7241C36.8116 16.8765 34.8296 17.0205 32.6188 18.0962C30.4081 19.172 29.1037 20.6712 28.9343 20.5272Z" fill="#5A4980"/>
<path d="M27.6121 36.8835C27.2418 35.8411 27.0834 34.7353 27.1462 33.6309C27.1593 30.9491 27.7573 28.3025 28.8984 25.8755C30.0394 23.4486 31.6961 21.2997 33.753 19.5788C34.5673 18.8357 35.52 18.26 36.5566 17.8848C36.6244 18.0033 35.5571 18.6556 34.1087 20.0108C30.2931 23.5686 27.9914 28.4571 27.6798 33.6648C27.6121 35.6299 27.7561 36.8666 27.6121 36.8835Z" fill="#5A4980"/>
<path d="M108.997 272.796L99.4084 114.682L70.076 98.0718L67.1199 90.3978L51.4076 100.994L47.0962 115.927L47.1386 99.6727L28.8259 86.2559L27.7333 95.7425C27.7333 95.7425 -14.1859 108.448 -17.4723 112.632C-20.7588 116.816 -7.02853 205.271 -7.02853 205.271L-12.8306 243.658L-15.9985 272.787L108.997 272.796Z" fill="#A1D9F2"/>
<path d="M-12.832 243.659C-12.832 243.659 -12.7643 243.532 -12.6203 243.312C-12.4763 243.091 -12.2391 242.744 -11.9596 242.312L-9.41853 238.517C-8.86796 237.67 -8.22422 236.781 -7.57201 235.765C-6.9198 234.748 -6.21678 233.639 -5.46293 232.444L-3.0235 228.633C-2.17648 227.261 -1.32946 225.812 -0.406205 224.296C3.30376 218.223 7.41182 210.82 11.7909 202.511C16.17 194.201 20.6 184.85 24.996 174.931C32.4592 157.977 39.0436 140.649 44.7232 123.017C45.8497 119.629 46.7391 116.555 47.5861 113.861C48.4331 111.168 49.1023 108.779 49.6444 106.915L50.9234 102.519C51.0674 102.028 51.1775 101.672 51.2622 101.376C51.3469 101.08 51.3977 100.986 51.3977 100.986C51.3977 100.986 51.3977 101.13 51.3046 101.384C51.2114 101.639 51.1351 102.045 51.0081 102.536L49.8053 106.958C49.2886 108.881 48.6449 111.193 47.8233 113.929C47.0017 116.665 46.1292 119.731 45.0196 123.111C39.4268 140.786 32.8781 158.144 25.4026 175.109C20.9981 185.036 16.5258 194.362 12.1467 202.697C7.76757 211.032 3.60868 218.401 -0.14363 224.457L-2.78634 228.785L-5.25118 232.58L-7.40261 235.883C-8.06329 236.891 -8.7155 237.789 -9.27454 238.611C-10.4011 240.228 -11.282 241.491 -11.9003 242.363C-12.1968 242.778 -12.4255 243.1 -12.5864 243.337C-12.7473 243.574 -12.832 243.659 -12.832 243.659Z" fill="#43B3E5"/>
</g>
<defs>
<clipPath id="clip0">
<rect width="104" height="104" fill="white"/>
</clipPath>
</defs>
</svg>
