<svg width="104" height="104" viewBox="0 0 104 104" fill="none" xmlns="http://www.w3.org/2000/svg">
<g clip-path="url(#clip0)">
<rect width="104" height="104" fill="#4B80FB"/>
<path d="M87.1562 101.52C87.1562 101.52 92.4541 104.06 94.8238 116.99C97.1934 129.919 99.0495 170.915 99.0495 170.915L104.122 221.119H85.8678L84.0117 132.514L87.1562 101.52Z" fill="#FFB167"/>
<path d="M28.9324 86.8242C28.9324 86.8242 12.3719 94.5729 6.06488 102.655C-0.242153 110.737 -5.88244 122.702 -5.53105 140.632C-5.17966 158.562 -5.53105 182.475 -5.53105 182.475C-5.53105 182.475 -14.6582 210.604 -11.8381 221.146H85.8939L92.9307 122.702C92.9307 122.702 91.1287 103.709 85.5425 99.8437C79.9562 95.9784 60.927 88.9416 60.927 88.9416L28.9324 86.8242Z" fill="#FFB167"/>
<path d="M34.6705 78.5703L28.7148 88.4453L54.5827 106.276L60.7005 96.221L34.6705 78.5703Z" fill="#FFB167"/>
<path d="M-1.65835 133.838C-1.65835 133.838 11.4693 185.529 19.7225 197.981C27.9757 210.433 37.5984 211.063 45.5723 210.739C53.5462 210.415 105.877 188.727 105.877 188.727L103.966 165.428L48.1041 169.933C48.1041 169.933 40.4456 117.602 30.8769 108.025C21.3083 98.4468 7.90131 105.475 6.62188 108.025C5.34245 110.574 -4.938 121.504 -1.65835 133.838Z" fill="#FFB167"/>
<path d="M67.0812 88.6719L73.1449 93.7806L68.2525 108.251L65.3242 103.115L67.0812 88.6719Z" fill="#FFB167"/>
<path d="M23.3886 102.844C21.644 102.521 19.8739 102.355 18.0997 102.349C13.8046 102.39 9.63742 103.815 6.21611 106.412C2.7948 109.009 0.301652 112.639 -0.893521 116.765C-1.3696 118.465 -1.68632 120.205 -1.83957 121.964C-1.86077 121.841 -1.86077 121.716 -1.83957 121.594C-1.86076 121.24 -1.86076 120.885 -1.83957 120.531C-1.76846 119.216 -1.55087 117.914 -1.19085 116.648C-0.0550423 112.409 2.45886 108.669 5.95473 106.016C9.4506 103.364 13.7297 101.95 18.1177 101.997C19.4326 101.997 20.7437 102.139 22.028 102.421C22.3751 102.492 22.7179 102.582 23.0552 102.691C23.1741 102.723 23.2868 102.775 23.3886 102.844V102.844Z" fill="#263238"/>
<path d="M60.1272 98.2388C60.1304 98.4756 60.1032 98.7118 60.0461 98.9416C59.965 99.4011 59.8298 100.077 59.5956 100.915C58.9415 103.253 57.9456 105.481 56.6403 107.528L56.5412 107.699L56.37 107.582C53.4597 105.645 49.9909 103.257 46.3328 100.59C41.3863 96.9864 37.0344 93.5266 33.935 90.9677C32.3852 89.6883 31.1509 88.6341 30.331 87.8953L29.3669 86.9943C29.1506 86.7961 29.0425 86.6879 29.0605 86.6699C29.1914 86.7421 29.3151 86.8266 29.4299 86.9222L30.394 87.7241L34.1152 90.6794C37.2687 93.1662 41.6386 96.563 46.5851 100.176C50.2341 102.879 53.676 105.249 56.5592 107.222L56.2889 107.285C57.5974 105.277 58.6279 103.101 59.3523 100.816C59.6136 99.9868 59.7848 99.3291 59.9019 98.8876C59.958 98.6652 60.0334 98.4481 60.1272 98.2388V98.2388Z" fill="#263238"/>
<path d="M70.6848 93.1289C70.7909 93.3775 70.8519 93.6429 70.865 93.9128C70.9461 94.4173 71.0452 95.1562 71.1173 96.0752C71.3085 98.4752 71.2844 100.888 71.0452 103.283C70.9821 103.941 70.9011 104.581 70.82 105.193L70.7479 105.716L70.4145 105.31C69.1588 103.791 68.0937 102.124 67.243 100.346C66.8718 99.6462 66.5931 98.9011 66.4141 98.1295C66.4771 98.1295 66.8195 98.9224 67.5133 100.202C68.4303 101.912 69.5202 103.525 70.7659 105.013L70.3605 105.13C70.4415 104.527 70.5226 103.887 70.5767 103.238C70.807 100.873 70.8792 98.4951 70.7929 96.1202C70.7209 94.2281 70.6218 93.1289 70.6848 93.1289Z" fill="#263238"/>
<g opacity="0.3">
<path opacity="0.3" d="M39.332 95.2207C44.4043 101.544 50.1438 107.302 56.4511 112.394C56.8525 112.793 57.3758 113.047 57.9378 113.115C58.2724 113.085 58.5914 112.96 58.8567 112.754C59.1219 112.548 59.3222 112.269 59.4334 111.952C59.635 111.309 59.7114 110.633 59.6587 109.961C59.5866 106.645 59.9921 102.42 59.929 99.095C58.9938 101.958 57.8308 104.742 56.4511 107.42C56.4511 107.42 45.3507 99.9149 39.5483 95.2207" fill="black"/>
</g>
<g opacity="0.3">
<path opacity="0.3" d="M66.8203 98.8592C67.4105 102.72 68.9218 106.382 71.2262 109.536C71.867 108.478 72.163 107.247 72.0732 106.013C72.081 102.384 71.7339 98.7628 71.037 95.2012C70.7307 98.1565 70.8929 102.121 70.5865 105.112C69.157 103.141 67.8971 101.052 66.8203 98.8683" fill="black"/>
</g>
<path d="M44.8086 85.6172C43.9789 87.201 43.0111 88.7085 41.9164 90.1222C40.9474 91.623 39.8501 93.0368 38.6367 94.3479C39.4688 92.7655 40.4365 91.2582 41.5289 89.8429C42.5036 88.3462 43.6006 86.9328 44.8086 85.6172V85.6172Z" fill="white"/>
<path d="M49.9876 90.0859C49.1151 91.4885 48.1136 92.8067 46.9963 94.0233C45.99 95.3233 44.8681 96.5295 43.6445 97.6273C44.5109 96.2205 45.5128 94.9017 46.6359 93.69C47.6364 92.3851 48.7587 91.1783 49.9876 90.0859V90.0859Z" fill="white"/>
<path d="M72.0177 96.8336C71.031 96.3724 70.1197 95.7649 69.3146 95.0315C68.413 94.4336 67.6052 93.7048 66.918 92.8691C67.8998 93.3386 68.81 93.9454 69.621 94.6711C70.5203 95.2721 71.3277 96.0005 72.0177 96.8336V96.8336Z" fill="white"/>
<path d="M80.7418 40.0706C81.7138 39.7779 82.5996 39.252 83.3218 38.5386C84.0441 37.8253 84.5809 36.9462 84.8857 35.9778C85.1904 35.0095 85.2537 33.9814 85.0701 32.983C84.8865 31.9846 84.4615 31.0462 83.8323 30.2496C83.0288 29.4686 82.3293 28.5874 81.7509 27.6277C80.7869 25.4202 82.5078 22.8884 82.0843 20.5188C81.6879 18.3203 79.5705 16.9148 77.4892 16.0768C75.4079 15.2389 73.1193 14.8605 71.3263 13.545C69.5333 12.2295 68.6233 10.4816 67.0285 9.16612C65.9188 8.24109 64.6013 7.59886 63.1891 7.29443C61.7768 6.99001 60.3118 7.03246 58.9195 7.41817C56.0903 8.22006 53.7117 10.4185 50.8104 10.7519C48.6841 10.9952 46.5757 10.1933 44.4403 10.0671C42.0133 9.98239 39.6298 10.7269 37.6825 12.178C35.7352 13.629 34.3402 15.7001 33.7274 18.05C33.4085 20.055 32.6214 21.9565 31.4298 23.6002C29.6819 25.7716 26.6635 26.4834 25.294 28.9071C24.4831 30.3397 24.7444 32.1507 25.2219 33.7275C25.8502 35.2629 26.2391 36.8855 26.3752 38.5389C26.3256 39.8303 25.8509 41.0691 25.0249 42.063C24.1988 43.0568 23.0677 43.7501 21.8071 44.035C22.0355 44.8122 22.4224 45.5337 22.9434 46.154C23.4645 46.7743 24.1084 47.2799 24.8345 47.639C23.7356 48.2509 22.4866 48.5413 21.2305 48.4769C21.7595 50.0028 22.5949 51.4045 23.6854 52.5957C24.7758 53.787 26.0983 54.7428 27.5716 55.4043C29.0449 56.0658 30.6379 56.4192 32.2527 56.4427C33.8675 56.4662 35.4701 56.1593 36.962 55.5408" fill="#1E1C61"/>
<path d="M33.7698 50.5771C33.5355 50.469 24.3273 47.5948 24.4624 57.0553C24.5976 66.5159 34.0581 64.4256 34.0761 64.1462C34.0941 63.8669 33.7698 50.5771 33.7698 50.5771Z" fill="#FCC6AB"/>
<path d="M31.1296 60.6045C31.1296 60.6045 30.9674 60.7216 30.6971 60.8568C30.3012 61.0166 29.8587 61.0166 29.4627 60.8568C28.4626 60.5054 27.5977 58.9286 27.5256 57.2528C27.4882 56.4441 27.6329 55.6374 27.949 54.8921C28.0328 54.5938 28.1882 54.3204 28.4018 54.0958C28.6154 53.8713 28.8806 53.7023 29.1744 53.6037C29.3626 53.5507 29.5635 53.5659 29.7416 53.6467C29.9196 53.7275 30.0634 53.8687 30.1475 54.0452C30.2826 54.3065 30.2196 54.4957 30.2736 54.5137C30.3277 54.5317 30.4719 54.3515 30.3908 53.9641C30.3387 53.7275 30.2047 53.5168 30.0123 53.3694C29.752 53.1817 29.4294 53.101 29.1113 53.1442C28.7248 53.228 28.3661 53.4096 28.0696 53.6714C27.773 53.9332 27.5485 54.2666 27.4174 54.6399C27.0226 55.4617 26.8399 56.3692 26.8859 57.2798C26.9669 59.1809 27.9761 60.9559 29.3456 61.3253C29.6009 61.3933 29.868 61.4043 30.128 61.3576C30.388 61.3109 30.6346 61.2076 30.8503 61.055C31.1206 60.8388 31.1656 60.6225 31.1296 60.6045Z" fill="#8E6664"/>
<path d="M81.6677 69.8668C81.8659 63.1994 81.1541 49.423 80.3703 36.9621C79.9621 30.5067 77.141 24.4409 72.4674 19.9692C67.7937 15.4975 61.6093 12.947 55.1421 12.8242H53.8086C39.3926 13.4099 31.8692 25.9699 32.8603 40.3409L34.6623 78.5975L60.4671 97.0321L65.3145 103.141L66.1074 96.5546L67.3778 85.6254C67.3778 85.6254 81.2532 83.6882 81.6677 69.8668Z" fill="#FCC6AB"/>
<path d="M67.4026 85.5896C61.0219 85.6069 54.7804 83.7251 49.4727 80.1836C49.4727 80.1836 53.1848 90.428 66.9972 89.4189L67.4026 85.5896Z" fill="#8E6664"/>
<path d="M76.8475 47.098C76.8429 47.612 76.6379 48.1039 76.2761 48.4691C75.9143 48.8342 75.4243 49.0438 74.9104 49.0531C74.6601 49.0689 74.4092 49.0346 74.1724 48.9521C73.9355 48.8697 73.7176 48.7407 73.5312 48.5729C73.3449 48.405 73.194 48.2016 73.0874 47.9746C72.9807 47.7477 72.9205 47.5017 72.9102 47.2511C72.9101 46.7364 73.1121 46.2422 73.4727 45.8748C73.8332 45.5075 74.3236 45.2964 74.8383 45.2869C75.0898 45.2711 75.3419 45.3057 75.5798 45.3886C75.8177 45.4716 76.0367 45.6012 76.2238 45.7699C76.411 45.9386 76.5625 46.1429 76.6697 46.371C76.7768 46.5991 76.8372 46.8462 76.8475 47.098V47.098Z" fill="#1E1C61"/>
<path d="M57.1534 46.7634C57.1488 47.279 56.9425 47.7722 56.5788 48.1376C56.2151 48.503 55.7228 48.7116 55.2073 48.7186C54.957 48.7344 54.7061 48.7001 54.4692 48.6176C54.2324 48.5351 54.0144 48.4062 53.8281 48.2383C53.6418 48.0705 53.4909 47.8671 53.3842 47.6401C53.2776 47.4132 53.2173 47.1672 53.207 46.9166C53.2116 46.4017 53.4163 45.9088 53.7779 45.5422C54.1394 45.1756 54.6294 44.9641 55.1442 44.9524C55.3954 44.9378 55.647 44.9733 55.8844 45.0567C56.1218 45.1401 56.3402 45.2697 56.5271 45.4382C56.714 45.6066 56.8656 45.8105 56.9731 46.038C57.0806 46.2655 57.1419 46.5121 57.1534 46.7634V46.7634Z" fill="#1E1C61"/>
<path d="M77.3955 42.9262C77.1522 43.1785 75.6745 42.0252 73.5482 42.0252C71.4218 42.0252 69.8451 43.0343 69.6198 42.773C69.3946 42.5117 69.773 42.1873 70.4577 41.7098C71.3877 41.092 72.4862 40.7772 73.6022 40.8088C74.709 40.8198 75.783 41.1862 76.6657 41.854C77.3054 42.3405 77.5216 42.809 77.3955 42.9262Z" fill="#1E1C61"/>
<path d="M57.0714 42.5223C56.8102 42.7566 55.4046 41.5312 53.2872 41.3691C51.1699 41.2069 49.53 42.1349 49.3228 41.8556C49.2147 41.7294 49.503 41.288 50.2238 40.8465C51.1917 40.2871 52.3092 40.0416 53.4224 40.1437C54.5232 40.2246 55.5687 40.6573 56.4047 41.3781C57.0174 41.9277 57.1976 42.4142 57.0714 42.5223Z" fill="#1E1C61"/>
<path d="M63.8276 59.5853C64.9535 59.2576 66.1156 59.0699 67.2874 59.0267C67.828 58.9726 68.3416 58.8825 68.4407 58.5131C68.4972 57.9512 68.3809 57.3854 68.1073 56.8913C67.6208 55.5758 67.1162 54.1883 66.5756 52.7377C64.4493 46.8181 62.9716 41.9256 63.1608 41.8716C63.35 41.8175 65.3232 46.5207 67.4406 52.4403L68.9092 56.621C69.2349 57.2832 69.3209 58.0379 69.1525 58.7564C69.0691 58.9442 68.945 59.1111 68.7892 59.2451C68.6333 59.3791 68.4497 59.4769 68.2515 59.5312C67.9571 59.606 67.6542 59.6423 67.3505 59.6394C66.1786 59.7706 64.9949 59.7525 63.8276 59.5853V59.5853Z" fill="#1E1C61"/>
<path d="M57.5461 60.9477C57.8885 60.9477 57.8614 63.2362 59.7986 64.9121C61.7358 66.588 64.2045 66.3717 64.2225 66.7141C64.2225 66.8583 63.6639 67.1466 62.6278 67.1556C61.2759 67.1528 59.9682 66.6743 58.9336 65.8041C57.9482 64.9606 57.3254 63.77 57.1947 62.4794C57.1226 61.4973 57.42 60.9297 57.5461 60.9477Z" fill="#1E1C61"/>
<path d="M56.9877 34.4108C56.7264 34.9604 54.6361 34.4739 52.1313 34.5189C49.6265 34.564 47.5452 35.0415 47.2659 34.5189C47.1487 34.2576 47.5542 33.7531 48.4192 33.2846C49.567 32.7104 50.8306 32.4055 52.114 32.393C53.3973 32.3805 54.6666 32.6608 55.8254 33.2125C56.6904 33.663 57.1048 34.1405 56.9877 34.4108Z" fill="#1E1C61"/>
<path d="M76.7911 37.0166C76.4036 37.4852 74.9891 36.9626 73.187 36.9085C71.385 36.8545 69.9254 37.1788 69.583 36.6653C69.4389 36.422 69.6821 35.9354 70.3399 35.4939C71.2252 34.9631 72.2479 34.7064 73.2789 34.7561C74.31 34.8058 75.3032 35.1597 76.1333 35.7733C76.764 36.2778 76.9532 36.7824 76.7911 37.0166Z" fill="#1E1C61"/>
<path d="M65.2731 11.7169C60.4527 9.61753 55.4702 10.4555 50.2534 11.0231C46.2381 11.3829 42.3806 12.7597 39.0449 15.0236C33.6388 18.7177 30.8277 24.7995 30.3141 31.3137C29.8044 37.576 30.2663 43.8795 31.6837 50.0005L32.1972 49.8834C31.6796 51.4318 31.5924 53.0917 31.945 54.6858C32.4495 56.2265 34.1795 57.4969 35.6841 56.9022C37.4861 56.1994 37.5943 53.8118 37.4861 51.9107C37.2506 45.5215 37.4644 39.1236 38.1258 32.7643C38.5673 28.007 41.5046 22.2586 45.3339 20.1503C53.8844 15.411 60.2005 20.1503 63.0747 21.3126C67.8049 17.5373 72.8596 19.9701 75.5446 23.493C74.6796 18.2672 70.0845 13.8432 65.2731 11.7169Z" fill="#1E1C61"/>
<path d="M27.3828 26.9153C27.3828 27.2127 27.9234 27.5731 29.0587 27.7533C30.6589 27.9195 32.2762 27.735 33.798 27.2127C35.9771 26.4822 38.0449 25.4544 39.9428 24.1583C42.0422 22.7978 44.1415 21.221 46.367 19.9506C48.302 18.7548 50.4959 18.041 52.7641 17.8693C54.6273 17.7807 56.4882 18.0878 58.2242 18.7703C61.3056 19.9596 62.8734 21.6535 63.423 21.257C63.5491 21.1669 63.5852 20.9687 63.5311 20.6534C63.4457 20.2213 63.2873 19.8069 63.0626 19.428C62.2351 18.0315 61.0937 16.8469 59.7289 15.9681C57.6661 14.5939 55.2673 13.8088 52.7911 13.6976C51.3015 13.6306 49.8107 13.804 48.3762 14.2112C46.9034 14.6403 45.4876 15.2453 44.1595 16.0132C41.8333 17.4268 39.6193 19.0172 37.5371 20.7705C35.965 22.0574 34.2996 23.2259 32.5546 24.2664C31.3845 24.9395 30.161 25.5151 28.8965 25.9873C27.9775 26.3567 27.4008 26.591 27.3828 26.9153Z" fill="#1E1C61"/>
<path d="M27.0391 34.619C27.6066 34.871 28.2201 35.0029 28.8411 35.0065C30.3303 35.1175 31.8269 34.937 33.247 34.4748C34.6693 34.0187 35.9864 33.2836 37.1213 32.3124C37.6144 31.9439 38.0333 31.4853 38.3557 30.9609C37.8579 31.3067 37.3796 31.6796 36.9231 32.0782C35.7665 32.9379 34.4798 33.6071 33.1118 34.0604C31.734 34.4975 30.2955 34.7134 28.8501 34.7001C27.7418 34.6731 27.0571 34.565 27.0391 34.619Z" fill="#5A4980"/>
<path d="M22.8873 44.0889C23.1344 44.0661 23.3771 44.0085 23.6081 43.9177C24.2467 43.724 24.8751 43.4985 25.4912 43.2419C27.5393 42.3896 29.4855 41.3106 31.2936 40.0253C33.1027 38.7437 34.7647 37.2661 36.2492 35.6194C36.8078 34.9797 37.2403 34.4481 37.5196 34.0607C37.7989 33.6733 37.943 33.448 37.916 33.43C37.889 33.412 37.1862 34.1958 36.0149 35.3942C34.4842 36.963 32.8168 38.3922 31.0323 39.6649C29.243 40.9271 27.3431 42.0248 25.356 42.9446C23.8423 43.6564 22.8602 44.0168 22.8873 44.0889Z" fill="#5A4980"/>
<path d="M55.8281 9.80664C56.4975 10.1409 57.1831 10.4416 57.8824 10.7076C59.5259 11.437 60.9966 12.5055 62.1982 13.8431C63.3454 15.2102 63.9823 16.9331 64.0002 18.7176C63.9484 19.457 63.8277 20.19 63.6398 20.907C63.7756 20.7481 63.8796 20.5646 63.9462 20.3664C64.1552 19.8428 64.2799 19.2893 64.3156 18.7266C64.3878 16.8372 63.7442 14.9902 62.5136 13.5548C61.2828 12.1683 59.7381 11.0963 58.0086 10.4283C57.3174 10.1119 56.5822 9.90226 55.8281 9.80664Z" fill="#5A4980"/>
<path d="M60.9453 6.80547C60.9453 6.86854 61.6751 7.31905 62.6392 8.32817C63.9103 9.63228 64.7933 11.2644 65.1895 13.0418C65.5858 14.8193 65.4795 16.6719 64.8827 18.3924C64.4322 19.7169 63.9276 20.4467 63.9817 20.4917C64.0358 20.5368 64.1529 20.3386 64.3781 20.0142C64.69 19.5375 64.9527 19.0303 65.162 18.5005C65.8613 16.7334 66.0127 14.7967 65.5965 12.9423C65.1804 11.088 64.2158 9.40173 62.8284 8.10292C62.4144 7.71239 61.9615 7.36519 61.4769 7.06676C61.1706 6.86854 60.9633 6.77844 60.9453 6.80547Z" fill="#5A4980"/>
<path d="M32.1953 51.9373C33.3252 51.9412 34.4257 51.5775 35.3308 50.9012C36.3151 50.3464 37.088 49.4815 37.5293 48.4414C36.7526 49.1812 35.9344 49.8761 35.0785 50.5227C34.1449 51.0482 33.1823 51.5205 32.1953 51.9373V51.9373Z" fill="#5A4980"/>
<path d="M31.6094 53.7393C32.8276 53.8196 34.0443 53.5607 35.1243 52.9913C36.2042 52.4219 37.1052 51.5643 37.7272 50.5137C36.8464 51.2856 35.8997 51.979 34.898 52.586C33.8396 53.0708 32.7387 53.4568 31.6094 53.7393V53.7393Z" fill="#5A4980"/>
<path d="M76.5949 25.5557C77.0403 25.5242 77.4694 25.3749 77.8383 25.1233C78.7727 24.5736 79.5496 23.7923 80.0941 22.8548C80.6386 21.9173 80.9323 20.8553 80.9467 19.7713C80.9845 19.3228 80.9037 18.8723 80.7125 18.4648C80.6506 18.8914 80.6235 19.3223 80.6314 19.7533C80.542 20.7651 80.2346 21.7457 79.7304 22.6275C79.2162 23.5046 78.5222 24.2631 77.6941 24.853C77.0274 25.2945 76.5679 25.4747 76.5949 25.5557Z" fill="#5A4980"/>
<path d="M75.179 22.7983C76.0948 22.0495 76.8385 21.1122 77.3595 20.0502C78.0066 19.0573 78.4393 17.9403 78.6299 16.7706C78.5037 16.7255 77.9181 18.1671 76.972 19.825C76.026 21.4828 75.0799 22.7172 75.179 22.7983Z" fill="#5A4980"/>
</g>
<defs>
<clipPath id="clip0">
<rect width="104" height="104" fill="white"/>
</clipPath>
</defs>
</svg>
