<svg width="104" height="104" viewBox="0 0 104 104" fill="none" xmlns="http://www.w3.org/2000/svg">
<g clip-path="url(#clip0)">
<rect width="104" height="104" fill="#4B80FB"/>
<path d="M42.9362 22.0346C46.092 17.461 44.1406 10.3873 39.4298 7.35347C36.9864 5.9577 34.1833 5.31972 31.3765 5.52059C28.5697 5.72146 25.886 6.75213 23.6663 8.48162C19.1843 11.8508 17.9342 17.7202 18.6659 22.7511C19.2148 26.4861 25.0689 34.1087 30.6486 30.7548" fill="#1E1C61"/>
<path d="M76.5522 53.7437C88.9465 29.7326 62.9993 16.073 48.303 19.4422C34.4909 22.6131 28.3471 29.1076 25.6487 38.1022C22.737 47.1166 22.737 56.8188 25.6487 65.8331C27.1732 70.2085 30.2222 74.7058 34.7958 75.4833" fill="#1E1C61"/>
<path d="M38.9277 32.6756C37.765 32.7258 36.6652 33.2173 35.8523 34.0501C35.0394 34.8828 34.5745 35.9941 34.5523 37.1576V37.1576L34.0645 99.7999C33.7901 107.194 44.3702 111.905 52.2824 112.133C60.2709 112.362 60.7282 108.459 61.2008 101.462C61.9783 89.7381 62.1917 85.3323 62.1917 85.3933C62.1917 85.4543 72.3603 84.2194 75.1044 71.1696C76.4765 64.6751 76.6289 53.9273 76.6289 45.1308C76.5222 37.2034 71.781 27.2635 63.8687 27.7056L38.9277 32.6756Z" fill="#FCC6AB"/>
<path d="M73.0898 53.1175C73.0702 53.557 72.8817 53.972 72.5636 54.2759C72.2455 54.5798 71.8223 54.7492 71.3823 54.7488C71.1663 54.7549 70.9513 54.7176 70.7499 54.6391C70.5485 54.5607 70.365 54.4426 70.21 54.2919C70.0551 54.1413 69.9319 53.961 69.8479 53.7619C69.7638 53.5628 69.7205 53.3489 69.7206 53.1328C69.7365 52.6933 69.9244 52.2778 70.2438 51.9755C70.5632 51.6732 70.9884 51.5085 71.4281 51.5168C71.6434 51.5086 71.8581 51.5439 72.0594 51.6207C72.2607 51.6974 72.4445 51.814 72.5996 51.9635C72.7548 52.113 72.8782 52.2922 72.9624 52.4905C73.0466 52.6888 73.09 52.9021 73.0898 53.1175V53.1175Z" fill="#201E62"/>
<path d="M73.9617 50.5729C73.7483 50.7863 72.5134 49.7801 70.6993 49.6887C68.8851 49.5972 67.4978 50.4509 67.3148 50.2222C67.1319 49.9936 67.452 49.7192 68.0618 49.338C68.8707 48.826 69.8198 48.5807 70.7755 48.6367C71.7227 48.6836 72.6304 49.0306 73.3672 49.6277C73.9007 50.085 74.0684 50.4814 73.9617 50.5729Z" fill="#201E62"/>
<path d="M56.0039 52.264C55.9843 52.7035 55.7958 53.1185 55.4777 53.4224C55.1596 53.7263 54.7364 53.8957 54.2965 53.8952C54.0804 53.9014 53.8654 53.8641 53.664 53.7856C53.4626 53.7071 53.279 53.5891 53.1241 53.4384C52.9691 53.2877 52.846 53.1075 52.762 52.9084C52.6779 52.7093 52.6347 52.4954 52.6347 52.2793C52.6545 51.8411 52.8435 51.4278 53.162 51.1264C53.4806 50.8249 53.9037 50.6589 54.3422 50.6633C54.5575 50.6551 54.7722 50.6904 54.9735 50.7672C55.1748 50.8439 55.3586 50.9605 55.5137 51.11C55.6689 51.2595 55.7923 51.4387 55.8765 51.637C55.9608 51.8353 56.0041 52.0486 56.0039 52.264Z" fill="#201E62"/>
<path d="M56.0945 50.0255C55.8658 50.239 54.6462 49.2328 52.8168 49.1413C50.9874 49.0498 49.6306 49.9036 49.4477 49.6596C49.2647 49.4157 49.5848 49.1718 50.1946 48.7754C51.008 48.2753 51.9549 48.0359 52.9083 48.0894C53.8522 48.139 54.7577 48.4798 55.5 49.0651C56.0336 49.5224 56.2012 49.9341 56.0945 50.0255Z" fill="#201E62"/>
<path d="M62.009 63.8232C63.0043 63.5637 64.0294 63.4355 65.058 63.4421C65.5306 63.4421 65.9727 63.3506 66.0642 63.0305C66.1239 62.554 66.0389 62.0707 65.8203 61.6432L64.6311 58.0453C63.5172 54.987 62.6405 51.8473 62.009 48.6543C63.3801 51.6061 64.5069 54.6654 65.3781 57.8014L66.5215 61.4145C66.7821 61.9884 66.836 62.6348 66.674 63.2439C66.5979 63.4058 66.4853 63.5478 66.3451 63.6589C66.205 63.77 66.0409 63.8471 65.866 63.8842C65.6062 63.9442 65.3397 63.9698 65.0733 63.9604C64.0502 64.0484 63.02 64.0023 62.009 63.8232V63.8232Z" fill="#201E62"/>
<path d="M62.1914 85.3786C55.9878 85.1687 49.9649 83.2367 44.7967 79.7988C44.7967 79.7988 48.6232 89.0526 61.856 88.4733L62.1914 85.3786Z" fill="#EB996E"/>
<path d="M61.0153 68.1657C60.6944 67.7123 60.2621 67.3493 59.7601 67.1116C59.2581 66.8739 58.7032 66.7697 58.1492 66.8088C57.7481 66.8264 57.3545 66.9229 56.9908 67.093C56.6272 67.263 56.3007 67.5032 56.0301 67.7998C55.7745 68.0929 55.6131 68.4561 55.5668 68.8422C55.5206 69.2284 55.5917 69.6195 55.7709 69.9646C56.0475 70.3072 56.4208 70.5588 56.8422 70.6866C57.2636 70.8143 57.7136 70.8124 58.1339 70.6811C59.0034 70.4229 59.8122 69.9926 60.5122 69.4158C60.7297 69.2837 60.9168 69.1071 61.061 68.8974C61.1306 68.7994 61.168 68.6822 61.168 68.562C61.168 68.4419 61.1306 68.3246 61.061 68.2266" fill="#E88161"/>
<path d="M56.5953 64.8129C56.9002 64.8129 56.8087 66.7795 58.4247 68.2735C60.0407 69.7675 62.1445 69.6456 62.1445 69.92C62.1445 70.1944 61.6567 70.2706 60.7725 70.2554C59.64 70.2007 58.5619 69.7533 57.7234 68.99C56.9008 68.2472 56.3981 67.2144 56.3209 66.1087C56.2294 65.2702 56.4734 64.7976 56.5953 64.8129Z" fill="#201E62"/>
<path d="M57.0675 46.8838C56.8693 47.3717 55.0551 47.0515 52.9208 47.204C50.7865 47.3564 49.018 47.8443 48.7588 47.3869C48.6369 47.1735 48.9723 46.7161 49.6888 46.274C50.6198 45.7353 51.664 45.4221 52.7378 45.3593C53.8371 45.2814 54.9393 45.4642 55.9545 45.8929C56.8235 46.2435 57.1589 46.6856 57.0675 46.8838Z" fill="#201E62"/>
<path d="M73.591 45.2837C73.2556 45.6801 72.0665 45.1923 70.542 45.1008C69.0175 45.0093 67.7521 45.238 67.4929 44.7959C67.371 44.5825 67.5997 44.1708 68.1637 43.805C68.9387 43.3723 69.8253 43.1812 70.7096 43.2561C71.5927 43.3188 72.4345 43.6544 73.1184 44.2166C73.591 44.6587 73.6977 45.1618 73.591 45.2837Z" fill="#201E62"/>
<path d="M72.8363 28.5303C73.1591 30.8576 72.8315 33.2288 71.8897 35.3814C70.948 37.534 69.4288 39.384 67.5005 40.7264C65.1791 42.1129 62.6449 43.107 59.9999 43.6688L54.9843 45.0408C51.324 46.2216 47.5163 46.8836 43.6723 47.0074C43.8705 51.3066 44.3736 54.2031 42.0564 57.8315C39.983 61.0939 36.9645 63.396 33.0617 62.405C31.6927 53.905 31.1819 45.2888 31.5372 36.6865C31.3706 34.4686 31.819 32.2477 32.8331 30.2683C34.8149 27.2192 38.9311 26.6094 42.6357 26.3198L58.018 25.1154C60.5191 24.8105 63.048 24.8105 65.5491 25.1154C68.0708 25.4479 70.3822 26.6958 72.0436 28.6218" fill="#1E1C61"/>
<path d="M23.2901 47.096H23.4425H23.8694C24.4322 47.0848 24.987 46.9603 25.5006 46.7301C26.3101 46.3676 27.0404 45.8497 27.6501 45.2056C28.4268 44.3489 29.1595 43.4533 29.8455 42.5224C30.6991 41.429 31.7297 40.486 32.8945 39.7326C34.2186 38.8674 35.6617 38.1997 37.1784 37.7507C40.7118 36.8151 44.3655 36.4143 48.0177 36.5616C51.7087 36.7215 55.4061 36.4658 59.04 35.7993C62.0415 35.193 64.8014 33.7256 66.9827 31.5764C67.81 30.7465 68.5134 29.8018 69.0712 28.7713C69.4829 27.9894 69.7807 27.1526 69.9554 26.2863C70.1146 25.5555 70.1507 24.8032 70.0622 24.0605C70.0032 24.7926 69.9015 25.5205 69.7573 26.2406C69.5517 27.0774 69.2337 27.8826 68.8121 28.6341C68.2417 29.6193 67.5333 30.5177 66.7083 31.302C64.5576 33.3633 61.858 34.7607 58.9332 35.3267C55.3305 35.9523 51.6708 36.1874 48.0177 36.028C44.3156 35.8845 40.6135 36.3113 37.0412 37.2933C35.4831 37.7634 34.0035 38.4622 32.6506 39.3667C31.4795 40.1672 30.4492 41.1563 29.6016 42.2937C28.8241 43.3152 28.1685 44.2756 27.4825 45.0074C26.9009 45.6302 26.2147 46.1462 25.4549 46.5319C24.7808 46.8695 24.0432 47.0617 23.2901 47.096V47.096Z" fill="#5A4980"/>
<path d="M25.3783 39.0612C25.325 38.4284 25.4189 37.7918 25.6527 37.2013C26.5493 35.6937 27.9385 34.5414 29.5859 33.9389C31.9709 32.8952 34.4994 32.2168 37.0865 31.9265C40.2789 31.6987 43.4834 31.6987 46.6757 31.9265C49.9052 32.1662 53.1512 32.0537 56.3564 31.5911C58.982 31.1529 61.4888 30.1772 63.7198 28.725C65.2301 27.7475 66.5139 26.4584 67.4853 24.9442C67.731 24.5266 67.95 24.0937 68.1409 23.6484C68.2137 23.4974 68.27 23.3389 68.3086 23.1758C68.3086 23.1758 68.0037 23.8008 67.3024 24.8375C66.2954 26.2734 65.0096 27.4918 63.5216 28.4201C61.3093 29.7882 58.8483 30.7052 56.2802 31.1185C53.1072 31.5427 49.899 31.6398 46.7062 31.4082C43.489 31.1643 40.258 31.1643 37.0408 31.4082C34.4037 31.7333 31.8326 32.4635 29.4182 33.573C27.7206 34.2309 26.3146 35.4747 25.4545 37.0793C25.2593 37.5623 25.1911 38.0871 25.2563 38.6039C25.2702 38.7622 25.3114 38.917 25.3783 39.0612Z" fill="#5A4980"/>
<path d="M19.6131 13.7871C19.4733 14.0609 19.4002 14.3639 19.3997 14.6713C19.3561 15.5013 19.5021 16.3302 19.8266 17.0953C21.0383 19.5465 22.9548 21.5798 25.3301 22.9342C26.6112 23.7141 28.0203 24.2612 29.492 24.5502C30.6947 24.7642 31.9224 24.8002 33.1356 24.6569C33.9475 24.5713 34.7524 24.4287 35.5443 24.23C35.8367 24.168 36.1189 24.0654 36.3828 23.9251C36.3828 23.8337 35.1327 24.1691 33.1051 24.291C31.9263 24.3735 30.7417 24.2966 29.5835 24.0623C28.1797 23.7856 26.8338 23.27 25.6045 22.5378C23.3154 21.2277 21.4362 19.3062 20.1772 16.9886C19.7208 15.9865 19.5267 14.8848 19.6131 13.7871V13.7871Z" fill="#5A4980"/>
<path d="M24.3679 7.97852C24.3193 8.27125 24.3193 8.57 24.3679 8.86274C24.4468 9.66287 24.5999 10.4539 24.8253 11.2257C25.5457 13.8018 26.9097 16.1521 28.789 18.0556C30.6818 19.9497 33.0197 21.3388 35.5883 22.0955C36.355 22.3206 37.141 22.4737 37.9361 22.5529C38.2284 22.6057 38.5279 22.6057 38.8203 22.5529C38.8203 22.4614 37.5855 22.3547 35.6951 21.7144C33.2237 20.8924 30.9821 19.4968 29.1538 17.642C27.3254 15.7871 25.9623 13.5257 25.1759 11.0428C24.5508 9.22861 24.4594 7.97852 24.3679 7.97852Z" fill="#5A4980"/>
<path d="M25.6826 64.9805C25.6997 64.7522 25.6997 64.5229 25.6826 64.2945C25.6826 63.8372 25.6826 63.1664 25.6826 62.2974C25.7401 59.8622 26.1932 57.4525 27.0241 55.1627C27.619 53.6043 28.4862 52.1641 29.5853 50.9093C30.8694 49.4898 32.4815 48.4064 34.2808 47.7535C38.0921 46.3205 42.6809 46.5492 47.3916 46.351C51.8765 46.2493 56.313 45.3991 60.5177 43.8355C63.9631 42.5258 67.0207 40.3649 69.4056 37.5545C71.0158 35.6727 72.1828 33.4533 72.8205 31.0601C72.9933 30.4106 73.1106 29.7476 73.1712 29.0782C73.1981 28.8452 73.1981 28.6099 73.1712 28.377C73.1712 28.377 73.0797 29.3374 72.5919 30.9991C71.8881 33.3296 70.6924 35.4819 69.0855 37.3106C66.7044 40.0344 63.6882 42.129 60.3043 43.4087C56.1467 44.921 51.769 45.7399 47.3459 45.8326C42.6656 46.0461 38.0158 45.8326 34.0826 47.3572C32.2119 48.0304 30.5436 49.1689 29.2346 50.6654C28.1057 51.9668 27.2271 53.4656 26.643 55.0864C25.8246 57.4174 25.4171 59.8728 25.4386 62.3431C25.4386 63.2121 25.4386 63.8677 25.4386 64.3403C25.4386 64.8129 25.6521 64.9805 25.6826 64.9805Z" fill="#5A4980"/>
<path d="M28.6685 31.1047C29.3385 30.4724 29.9697 29.8004 30.5589 29.0924C33.594 25.874 37.2713 23.329 41.3525 21.6222C42.2222 21.3247 43.0724 20.9734 43.8984 20.5703C42.9765 20.6819 42.074 20.9178 41.2153 21.2716C36.9696 22.8246 33.1985 25.4507 30.2693 28.8942C29.642 29.5584 29.1039 30.3015 28.6685 31.1047V31.1047Z" fill="#FB6E67"/>
<path d="M35.9561 54.5055C35.7731 54.414 29.0653 51.0448 28.5927 58.9113C28.1201 66.7778 36.1238 65.6344 36.2152 65.421C36.3067 65.2075 35.9561 54.5055 35.9561 54.5055Z" fill="#FCC6AB"/>
<path d="M33.9609 62.2802C33.9609 62.2802 33.8085 62.3717 33.5798 62.4631C33.2475 62.5987 32.8754 62.5987 32.5431 62.4631C32.0672 62.119 31.6891 61.6569 31.4458 61.1223C31.2026 60.5877 31.1026 59.999 31.1558 59.4141C31.1764 58.7343 31.3482 58.0677 31.6589 57.4627C31.7428 57.218 31.8875 56.9986 32.0795 56.8253C32.2716 56.6519 32.5045 56.5303 32.7566 56.4718C32.9176 56.4416 33.0841 56.4675 33.2284 56.5452C33.3726 56.6228 33.4859 56.7476 33.5493 56.8987C33.6408 57.1273 33.5493 57.2798 33.6255 57.295C33.7018 57.3103 33.7932 57.1731 33.7475 56.8529C33.7256 56.6514 33.6275 56.4659 33.4731 56.3346C33.2657 56.1584 32.9975 56.0708 32.7261 56.0907C32.3965 56.1322 32.0832 56.2577 31.8163 56.4553C31.5493 56.6529 31.3376 56.9158 31.2016 57.2188C30.8271 57.8808 30.6179 58.6235 30.5918 59.3836C30.5109 60.0826 30.6385 60.7899 30.9586 61.4165C31.2787 62.0431 31.777 62.5611 32.3907 62.9052C32.598 62.9772 32.8183 63.0035 33.0367 62.9825C33.2551 62.9614 33.4663 62.8935 33.656 62.7833C33.9609 62.4784 33.9609 62.2954 33.9609 62.2802Z" fill="#EB996E"/>
<path d="M94.3164 134.315L78.0803 202.75L23.5637 198.07L16.5509 144.255L1.94606 121.265C1.94606 121.265 5.55915 99.6624 29.5245 99.4947L33.4121 90.3477L62.1491 92.7564L65.5641 101.126C65.5641 101.126 89.2093 102.818 88.6605 124.283L94.3164 134.315Z" fill="#FB6E67"/>
<path d="M57.7704 102.347C58.0777 100.708 58.1137 99.0286 57.8772 97.3773C57.9125 95.7098 57.6809 94.0474 57.1911 92.4531C56.9002 94.0944 56.8642 95.7708 57.0844 97.423C57.0616 99.0898 57.2929 100.75 57.7704 102.347Z" fill="#C1423C"/>
<path d="M47.1114 101.385C48.1454 98.2527 48.6604 94.9723 48.6359 91.6738C47.9857 93.1946 47.5891 94.8117 47.462 96.4608C47.0865 98.0735 46.9681 99.7354 47.1114 101.385V101.385Z" fill="#C1423C"/>
<path d="M37.9061 99.617C39.1906 97.1227 39.9874 94.4062 40.2539 91.6133C38.9695 94.1076 38.1726 96.8241 37.9061 99.617V99.617Z" fill="#C1423C"/>
</g>
<defs>
<clipPath id="clip0">
<rect width="104" height="104" fill="white"/>
</clipPath>
</defs>
</svg>
