<svg width="226" height="49" viewBox="0 0 226 49" fill="none" xmlns="http://www.w3.org/2000/svg">
<g filter="url(#filter0_d)">
<path d="M23.9721 27.8235C24.6077 27.4399 25.4035 27.4399 26.0391 27.8235L32.007 31.4256C33.5217 32.3398 35.3902 30.9817 34.9882 29.2588L33.4043 22.4707C33.2356 21.7477 33.4813 20.9907 34.0424 20.5046L39.3179 15.9346C40.6551 14.7761 39.9403 12.5796 38.1774 12.43L31.2361 11.8413C30.4969 11.7786 29.8532 11.312 29.5637 10.629L26.847 4.21951C26.1578 2.5935 23.8533 2.5935 23.1641 4.21951L20.4475 10.629C20.158 11.312 19.5142 11.7786 18.7751 11.8413L11.8338 12.43C10.0709 12.5796 9.35602 14.7761 10.6933 15.9346L15.9687 20.5046C16.5299 20.9907 16.7756 21.7477 16.6069 22.4707L15.023 29.2588C14.621 30.9817 16.4895 32.3398 18.0041 31.4256L23.9721 27.8235Z" fill="#FFCB67"/>
<path d="M67.7628 27.8235C68.3984 27.4399 69.1941 27.4399 69.8297 27.8235L75.7977 31.4256C77.3123 32.3398 79.1809 30.9817 78.7788 29.2588L77.195 22.4707C77.0262 21.7477 77.2719 20.9907 77.8331 20.5046L83.1086 15.9346C84.4458 14.7761 83.7309 12.5796 81.968 12.43L75.0268 11.8413C74.2876 11.7786 73.6438 11.312 73.3544 10.629L70.6377 4.21951C69.9485 2.5935 67.644 2.5935 66.9548 4.21951L64.2381 10.629C63.9487 11.312 63.3049 11.7786 62.5657 11.8413L55.6244 12.43C53.8615 12.5796 53.1467 14.7761 54.4839 15.9346L59.7594 20.5046C60.3206 20.9907 60.5663 21.7477 60.3975 22.4707L58.8136 29.2588C58.4116 30.9817 60.2801 32.3398 61.7948 31.4256L67.7628 27.8235Z" fill="#FFCB67"/>
<path d="M111.553 27.8235C112.189 27.4399 112.985 27.4399 113.62 27.8235L119.588 31.4256C121.103 32.3398 122.972 30.9817 122.57 29.2588L120.986 22.4707C120.817 21.7477 121.063 20.9907 121.624 20.5046L126.899 15.9346C128.236 14.7761 127.522 12.5796 125.759 12.43L118.817 11.8413C118.078 11.7786 117.435 11.312 117.145 10.629L114.428 4.21951C113.739 2.5935 111.435 2.5935 110.746 4.21951L108.029 10.629C107.739 11.312 107.096 11.7786 106.356 11.8413L99.4151 12.43C97.6522 12.5796 96.9374 14.7761 98.2746 15.9346L103.55 20.5046C104.111 20.9907 104.357 21.7477 104.188 22.4707L102.604 29.2588C102.202 30.9817 104.071 32.3398 105.585 31.4256L111.553 27.8235Z" fill="#FFCB67"/>
<path d="M155.344 27.8235C155.98 27.4399 156.775 27.4399 157.411 27.8235L163.379 31.4256C164.894 32.3398 166.762 30.9817 166.36 29.2588L164.776 22.4707C164.608 21.7477 164.853 20.9907 165.414 20.5046L170.69 15.9346C172.027 14.7761 171.312 12.5796 169.549 12.43L162.608 11.8413C161.869 11.7786 161.225 11.312 160.936 10.629L158.219 4.21951C157.53 2.5935 155.225 2.5935 154.536 4.21951L151.82 10.629C151.53 11.312 150.886 11.7786 150.147 11.8413L143.206 12.43C141.443 12.5796 140.728 14.7761 142.065 15.9346L147.341 20.5046C147.902 20.9907 148.148 21.7477 147.979 22.4707L146.395 29.2588C145.993 30.9817 147.862 32.3398 149.376 31.4256L155.344 27.8235Z" fill="#FFCB67"/>
<path d="M199.135 27.8235C199.77 27.4399 200.566 27.4399 201.202 27.8235L207.17 31.4256C208.684 32.3398 210.553 30.9817 210.151 29.2588L208.567 22.4707C208.398 21.7477 208.644 20.9907 209.205 20.5046L214.481 15.9346C215.818 14.7761 215.103 12.5796 213.34 12.43L206.399 11.8413C205.66 11.7786 205.016 11.312 204.726 10.629L202.01 4.21951C201.32 2.5935 199.016 2.5935 198.327 4.21951L195.61 10.629C195.321 11.312 194.677 11.7786 193.938 11.8413L186.996 12.43C185.234 12.5796 184.519 14.7761 185.856 15.9346L191.131 20.5046C191.693 20.9907 191.938 21.7477 191.77 22.4707L190.186 29.2588C189.784 30.9817 191.652 32.3398 193.167 31.4256L199.135 27.8235Z" fill="#FFCB67"/>
</g>
<defs>
<filter id="filter0_d" x="0" y="0" width="225.174" height="48.7193" filterUnits="userSpaceOnUse" color-interpolation-filters="sRGB">
<feFlood flood-opacity="0" result="BackgroundImageFix"/>
<feColorMatrix in="SourceAlpha" type="matrix" values="0 0 0 0 0 0 0 0 0 0 0 0 0 0 0 0 0 0 127 0"/>
<feOffset dy="7"/>
<feGaussianBlur stdDeviation="5"/>
<feColorMatrix type="matrix" values="0 0 0 0 1 0 0 0 0 0.796078 0 0 0 0 0.403922 0 0 0 0.26 0"/>
<feBlend mode="normal" in2="BackgroundImageFix" result="effect1_dropShadow"/>
<feBlend mode="normal" in="SourceGraphic" in2="effect1_dropShadow" result="shape"/>
</filter>
</defs>
</svg>
